<mxfile host="65bd71144e">
    <diagram id="n9bnbw453yK6bljj5Mdz" name="Page-1">
        <mxGraphModel dx="1198" dy="749" grid="1" gridSize="10" guides="1" tooltips="1" connect="1" arrows="1" fold="1" page="1" pageScale="1" pageWidth="850" pageHeight="1100" math="0" shadow="0">
            <root>
                <mxCell id="0"/>
                <mxCell id="1" parent="0"/>
                <mxCell id="2" value="" style="shape=image;verticalLabelPosition=bottom;labelBackgroundColor=#ffffff;verticalAlign=top;aspect=fixed;imageAspect=0;image=https://refactoring.guru/images/patterns/diagrams/proxy/structure.png;" vertex="1" parent="1">
                    <mxGeometry x="10" y="10" width="370" height="370" as="geometry"/>
                </mxCell>
                <mxCell id="3" value="" style="shape=image;verticalLabelPosition=bottom;labelBackgroundColor=#ffffff;verticalAlign=top;aspect=fixed;imageAspect=0;image=https://refactoring.guru/images/patterns/diagrams/proxy/example.png;" vertex="1" parent="1">
                    <mxGeometry x="270" y="400" width="490" height="400" as="geometry"/>
                </mxCell>
            </root>
        </mxGraphModel>
    </diagram>
</mxfile>